<svg xmlns="http://www.w3.org/2000/svg" xmlns:xlink="http://www.w3.org/1999/xlink" width="300" height="300" viewBox="2022523.316361405 5782692.140473485 12627.353405968286 21218.739707535133" preserveAspectRatio="xMinYMin meet"><g transform="matrix(1,0,0,-1,0,11586603.020654505)"><path fill-rule="evenodd" fill="#66cc99" stroke="#555555" stroke-width="141.45826471690089" opacity="0.6" d="M 2031533.0979850728,5802031.447897918 L 2031529.8079338346,5801851.400367407 L 2031529.5337436702,5801826.019186519 L 2031529.4826163196,5801749.640140469 L 2031531.1099498814,5801621.242184542 L 2031535.330295533,5801441.0764479535 L 2031540.8292676394,5801255.357152851 L 2031545.1663950712,5801120.909533258 L 2031547.9247399499,5801037.906556888 L 2031555.283996729,5801002.865309114 L 2031612.7564494093,5800965.174003352 L 2031702.9676776854,5800906.252614014 L 2031832.8033620135,5800821.361814498 L 2031979.833417995,5800725.203605627 L 2032090.075368548,5800653.183141986 L 2032161.265626858,5800606.529960833 L 2032193.9820243642,5800585.25949621 L 2032194.622006916,5800563.46737667 L 2032194.652682935,5800430.454038351 L 2032194.873384189,5800176.32104526 L 2032194.44396068,5799799.829066725 L 2032191.5723758643,5799338.355549739 L 2032188.9023808686,5798972.95146088 L 2032186.1075325364,5798729.307477582 L 2032184.8519956965,5798607.233879787 L 2032185.780662048,5798585.431132228 L 2032217.4563863706,5798433.378646837 L 2032281.5626024655,5798124.723877466 L 2032378.6590629886,5797653.287646314 L 2032504.4960376264,5797037.806552168 L 2032609.9073302066,5796514.782144759 L 2032681.5821750779,5796155.218865253 L 2032720.5234280697,5795958.289215055 L 2032728.5084514078,5795916.963106595 L 2032728.5536167931,5795892.979819672 L 2032728.6412577152,5795836.45098117 L 2032728.7259750252,5795745.671523033 L 2032728.7275329188,5795621.224874655 L 2032728.6077478237,5795505.930375193 L 2032728.452090772,5795424.892162392 L 2032728.331763132,5795376.958041954 L 2032723.2020218505,5795359.97420848 L 2032686.4349594254,5795339.264908911 L 2032633.8187983257,5795309.847516415 L 2032560.2450773101,5795268.436091219 L 2032483.8123192214,5795225.393035167 L 2032428.3100085498,5795194.348707392 L 2032394.3209081658,5795175.285012561 L 2032381.2607162676,5795162.509792104 L 2032380.9398083661,5795106.027548202 L 2032380.3518223313,5795016.41001594 L 2032379.3231410198,5794888.383790947 L 2032377.8750499955,5794741.2791842045 L 2032376.6426754864,5794630.71193721 L 2032375.8059980404,5794559.0482386695 L 2032375.4075387504,5794525.779565661 L 2032394.6181330837,5794524.101053531 L 2032517.862651317,5794518.975878302 L 2032755.8746662706,5794508.390443249 L 2033108.7318832318,5794493.547131275 L 2033543.736332698,5794474.857676677 L 2033889.501036147,5794459.8379944805 L 2034121.5977932867,5794450.214530569 L 2034238.2366079327,5794445.402065559 L 2034254.6478684782,5794442.0991768865 L 2034260.6270265812,5794376.5306050945 L 2034273.150359206,5794242.492022244 L 2034292.7786872562,5794035.911122228 L 2034315.0936825688,5793799.380953656 L 2034318.3525161447,5793765.429117642 L 2034339.9991204038,5793534.706432318 L 2034355.1126003198,5793375.387363081 L 2034363.1844700347,5793287.46104008 L 2034364.790518946,5793268.505321262 L 2034362.3253586642,5793233.01997089 L 2034356.162277916,5793146.613007694 L 2034345.6926219962,5793008.178053386 L 2034331.4383204274,5792819.445668612 L 2034318.3027510042,5792642.169452207 L 2034308.8735165552,5792516.937411447 L 2034303.2004508125,5792443.166214796 L 2034301.2779091334,5792415.136313596 L 2034300.9527115037,5792372.755341423 L 2034300.4648077174,5792310.894206473 L 2034299.755702007,5792224.386223923 L 2034298.9793044908,5792133.844701323 L 2034298.3915563559,5792067.927984678 L 2034298.0189818793,5792027.224318634 L 2034291.0080527917,5792010.705624547 L 2034220.1077355442,5792006.680949889 L 2034106.8949849193,5792000.526121758 L 2033943.9306861795,5791991.882009417 L 2033756.9305881253,5791981.546668112 L 2033615.6762312273,5791974.522847017 L 2033524.1627206202,5791969.466569391 L 2033479.5394799013,5791966.356884985 L 2033453.493561838,5791941.545182131 L 2033408.3209443858,5791898.103902619 L 2033342.2309540007,5791833.16566525 L 2033259.834505732,5791752.947328763 L 2033193.625533028,5791689.084350056 L 2033149.445738745,5791646.1041681655 L 2033124.9997240289,5791621.189307637 L 2033126.4705036632,5791570.872902175 L 2033131.714624761,5791470.189211394 L 2033138.9924415965,5791315.695096206 L 2033149.5748517062,5791111.958998428 L 2033158.3812708573,5790936.53701095 L 2033164.6153132133,5790815.497356896 L 2033168.2225854734,5790748.300403872 L 2033168.5776313606,5790733.2448851755 L 2033160.3483187838,5790640.167804269 L 2033139.3194674868,5790410.515816473 L 2033117.0479440475,5790164.98430106 L 2033105.663560191,5790040.952642187 L 2033060.418764117,5789532.945186612 L 2033018.5861444892,5789052.544361661 L 2032989.0476407649,5788710.421090709 L 2032971.6309954568,5788508.3392346855 L 2032966.4263033378,5788446.433333316 L 2032948.506283767,5788441.329855951 L 2032890.7077017424,5788426.060289881 L 2032793.0134227239,5788400.05804106 L 2032656.5629750788,5788363.926793641 L 2032511.9821641517,5788325.585834916 L 2032407.277815107,5788297.4116187 L 2032342.4850891242,5788280.541512675 L 2032316.4785656282,5788276.137916631 L 2032314.096245149,5788318.29242068 L 2032310.8312244085,5788383.866265136 L 2032306.1639793355,5788478.724364271 L 2032300.4952222814,5788588.8261588495 L 2032296.232644147,5788672.000391723 L 2032293.3655067226,5788725.8950976245 L 2032292.492806588,5788751.666601858 L 2032277.5255456849,5788752.430354967 L 2032175.5897591445,5788753.667924152 L 2031976.8995664853,5788756.199174733 L 2031681.448222834,5788760.259604521 L 2031313.4091423484,5788765.827576333 L 2031017.9174221833,5788770.720683044 L 2030819.172847709,5788774.191521794 L 2030717.7698544117,5788775.980930132 L 2030703.3471460056,5788775.0605135 L 2030708.5123484419,5788736.168203585 L 2030720.5094436558,5788654.836484933 L 2030739.2947819943,5788529.3236232465 L 2030763.756075835,5788363.79285458 L 2030784.5069714065,5788220.710348986 L 2030799.0276409748,5788121.235583356 L 2030807.3544654103,5788066.502026643 L 2030809.4576610117,5788054.1404817365 L 2030787.930793755,5788044.505231615 L 2030734.4102098402,5788021.297042661 L 2030647.7136521493,5787983.958807843 L 2030529.5550928484,5787933.066718207 L 2030416.587764131,5787884.448456152 L 2030336.1912534307,5787849.381688948 L 2030281.4277056465,5787826.219817011 L 2030285.927231015,5787788.550022341 L 2030325.4595603284,5787676.883881404 L 2030391.86859497,5787488.485472381 L 2030486.2865088321,5787222.346523564 L 2030586.1879113608,5786941.151528706 L 2030658.6248976784,5786736.76500472 L 2030704.1710812652,5786608.427865452 L 2030722.2869322104,5786557.811256083 L 2030725.3761757084,5786538.4401995 L 2030739.3377760286,5786454.499669221 L 2030764.6740514978,5786303.085144049 L 2030801.3518545832,5786084.24929269 L 2030843.6078826983,5785829.7273713425 L 2030875.48765561,5785636.264321734 L 2030896.6008356977,5785510.829740155 L 2030906.9116004684,5785450.463049584 L 2030906.4776352837,5785430.57728758 L 2030901.4164332347,5785306.02904549 L 2030892.4703127514,5785061.627910228 L 2030878.8754857783,5784696.845705892 L 2030861.0792269735,5784240.384825148 L 2030846.2908353547,5783872.254235371 L 2030836.847951314,5783623.992144403 L 2030831.5098178356,5783496.100013736 L 2030828.1690169745,5783478.019721912 L 2030729.978551446,5783498.710648172 L 2030520.8618899903,5783543.810205491 L 2030473.1937151696,5783552.434648828 L 2030197.9676540243,5783614.1669457285 L 2029770.6495527436,5783707.722652097 L 2029397.9920781467,5783789.52456839 L 2029139.7066580148,5783846.818957925 L 2028995.7726720658,5783879.271763338 L 2028962.1239762136,5783887.35615405 L 2028961.28400893,5783940.092640862 L 2028959.3188666455,5784077.214230831 L 2028955.5722012531,5784297.585077228 L 2028951.1762230282,5784602.408112754 L 2028946.2976589052,5784893.837171851 L 2028943.1458242638,5785101.458985761 L 2028940.6227866353,5785225.241093408 L 2028939.9194688338,5785264.548092637 L 2028910.1661606352,5785284.946259609 L 2028811.1506032033,5785351.586398889 L 2028642.3199606272,5785465.120212195 L 2028404.285710204,5785625.628558031 L 2028149.7682141156,5785797.031066091 L 2027964.5581450504,5785922.139746451 L 2027847.9694988807,5786000.356050036 L 2027801.1266544398,5786032.235580959 L 2027756.6206938096,5786022.949971932 L 2027553.3368558658,5785979.1255704835 L 2027184.0956184757,5785899.580516966 L 2026647.8843745755,5785783.469288774 L 2026019.8323377823,5785646.953124808 L 2025585.2769957127,5785552.607369675 L 2025540.5598650393,5785542.580761661 L 2025227.5286420335,5785474.643539748 L 2025075.645191158,5785441.139667127 L 2025065.111672829,5785457.750192427 L 2025030.6077037575,5785593.001213748 L 2024962.7721411928,5785861.200899543 L 2024861.1599556701,5786261.31179988 L 2024733.797458144,5786765.138701945 L 2024631.4133590553,5787173.999361766 L 2024562.2468220948,5787449.872437237 L 2024549.054793797,5787503.164340419 L 2024526.1501051572,5787593.187167254 L 2024521.7559645828,5787616.2673286665 L 2024559.128968192,5787635.833833347 L 2024639.7928099742,5787678.418945627 L 2024764.8497317175,5787743.98540389 L 2024930.6600259717,5787830.779411098 L 2025075.6359788054,5787907.194699495 L 2025176.7575116446,5787960.605232342 L 2025233.498504892,5787990.456765714 L 2025247.1008782834,5787997.927204326 L 2025230.4504829934,5788106.1734407535 L 2025187.235664307,5788388.992384986 L 2025118.1508764261,5788847.188227527 L 2025022.2089587573,5789480.568059747 L 2024930.4770671779,5790092.044947273 L 2024864.7912239209,5790528.3787672 L 2024826.0675413555,5790789.746847097 L 2024821.901422806,5790818.859317034 L 2024813.511835526,5790875.312057112 L 2024802.1556322514,5790928.859742558 L 2024762.6019324698,5791112.16998435 L 2024696.1907534462,5791425.96637697 L 2024602.6391461794,5791869.343166584 L 2024503.3081040443,5792344.788053374 L 2024475.8245397222,5792478.963169223 L 2024432.1277194144,5792693.045087087 L 2024388.548125515,5792910.977209115 L 2024370.595656562,5793000.915289684 L 2024377.2193425088,5793019.584749247 L 2024411.711205787,5793105.197646737 L 2024474.4026744533,5793261.676532763 L 2024566.0158770056,5793487.520570482 L 2024674.3904207854,5793753.438028875 L 2024757.415546962,5793956.423735684 L 2024811.597981826,5794089.2797733415 L 2024838.5967147108,5794154.444026726 L 2024829.6989683006,5794178.618120984 L 2024749.6400540157,5794346.977614241 L 2024589.3190576131,5794682.088280984 L 2024346.865051438,5795181.482359166 L 2024035.945095026,5795809.455665855 L 2023780.4668920531,5796319.104570618 L 2023605.2083649975,5796662.760175848 L 2023513.6596042258,5796842.641910141 L 2023499.6705409193,5796872.646134846 L 2023520.2156874442,5796904.732084181 L 2023565.2730275467,5796977.800827859 L 2023634.6358315,5797087.857466376 L 2023726.994593589,5797235.472354035 L 2023807.743455272,5797366.485064261 L 2023864.602035845,5797457.078819491 L 2023896.0815374102,5797508.470823647 L 2023903.9478888346,5797521.7415932985 L 2023904.2717297561,5797577.6388825895 L 2023904.951218072,5797726.631471294 L 2023905.4939237444,5797969.109385258 L 2023905.1375510744,5798303.687378075 L 2023903.6389336954,5798628.306167298 L 2023901.889434537,5798860.458066533 L 2023900.5684716022,5798999.787984321 L 2023900.400653016,5799016.0770880245 L 2023913.702541969,5799016.204314561 L 2023927.524261655,5799019.68423935 L 2023891.801420781,5799093.832541296 L 2023820.177898607,5799244.288565246 L 2023710.574356894,5799473.714288539 L 2023567.0832259739,5799770.311275147 L 2023445.341431994,5800018.609904416 L 2023361.908277388,5800187.225210324 L 2023317.0146316895,5800277.086219662 L 2023309.1956098322,5800296.240919432 L 2023325.2227792179,5800397.670320851 L 2023358.2411049292,5800617.081852544 L 2023408.1541802904,5800957.604084308 L 2023470.0400693684,5801407.472423834 L 2023520.5997517402,5801796.663910918 L 2023553.3231277922,5802066.109095001 L 2023565.7052240588,5802182.088226582 L 2023570.6177399913,5802214.256337211 L 2023575.5054366926,5802246.428538585 L 2023619.5901602232,5802271.835407256 L 2023722.8199266077,5802331.3484077575 L 2023885.781550852,5802425.078508591 L 2024105.261925396,5802551.583428695 L 2024302.1925392798,5802665.3088457165 L 2024439.4034465493,5802744.89242701 L 2024517.4329734,5802790.180579135 L 2024537.394139385,5802801.081936918 L 2024585.0981591586,5802786.426142092 L 2024705.1641043974,5802750.026718911 L 2024759.1624427713,5802733.578495683 L 2024897.6302844733,5802690.692401802 L 2025161.4581119926,5802609.453185097 L 2025406.4494808004,5802533.382182533 L 2025579.0301833851,5802480.199228075 L 2025679.5428601322,5802448.86590263 L 2025708.084985042,5802439.992318532 L 2025731.9523174015,5802460.976298147 L 2025797.7306995825,5802518.423495845 L 2025905.343344043,5802612.964612207 L 2026054.7590362374,5802744.143505245 L 2026199.8387323185,5802871.598947132 L 2026303.5742208264,5802962.560503087 L 2026364.90768638,5803016.956726656 L 2026384.4772024024,5803034.166392498 L 2026404.159591109,5803025.454804018 L 2026464.3831678007,5802998.169309224 L 2026564.5130729412,5802952.293414081 L 2026704.4007801167,5802888.352679519 L 2026846.9935037266,5802823.180594107 L 2026949.6619584146,5802776.012491455 L 2027011.9114948767,5802747.460396926 L 2027038.110377007,5802740.311408137 L 2027070.9175012778,5802762.447549327 L 2027120.3713773421,5802796.222726011 L 2027189.6934087274,5802843.864642895 L 2027263.285932235,5802894.861903617 L 2027317.0412461942,5802931.4486134965 L 2027350.3305118668,5802954.749677463 L 2027366.7338852766,5802961.316051833 L 2027406.9638737629,5802927.412510622 L 2027467.8005767108,5802876.815699701 L 2027554.5371049582,5802804.338730465 L 2027650.5898013536,5802723.763282907 L 2027721.2156238917,5802664.450119424 L 2027765.9019130846,5802627.00340608 L 2027785.257536714,5802611.433936094 L 2027793.7393751289,5802619.807830255 L 2027830.7026692652,5802658.928549958 L 2027898.2756427792,5802730.484073423 L 2027995.9402862454,5802833.38109594 L 2028107.2296497924,5802952.010059584 L 2028191.6743381696,5803041.002755904 L 2028245.4740014593,5803098.680580799 L 2028270.29137321,5803125.000932593 L 2028283.8760691674,5803123.124474533 L 2028352.5951457554,5803109.759994846 L 2028480.3746812807,5803084.83995557 L 2028667.7762001324,5803048.324069117 L 2028889.8702920093,5803004.471657411 L 2029060.8456464396,5802971.46597791 L 2029172.2401994988,5802949.467856766 L 2029226.7965172112,5802939.043197301 L 2029239.340797292,5802924.667572661 L 2029309.1356782527,5802834.494124714 L 2029443.6777425,5802660.347322241 L 2029641.882480342,5802403.138034713 L 2029883.0045685004,5802087.363046361 L 2030072.748891038,5801838.66131804 L 2030197.9805762449,5801674.050963684 L 2030264.8764148774,5801587.91974232 L 2030292.616742722,5801607.995331478 L 2030340.731353292,5801650.556411708 L 2030412.1360809857,5801713.84514505 L 2030502.5958110115,5801793.932109302 L 2030575.8598386003,5801858.8842051 L 2030624.8129099393,5801901.9775009705 L 2030653.7190386322,5801926.577691565 L 2030699.9937301285,5801924.64508859 L 2030789.2847205375,5801919.674924714 L 2030924.6018592643,5801912.131661657 L 2031100.1901427542,5801901.996050909 L 2031247.065411281,5801893.318290558 L 2031347.7519942685,5801887.673877322 L 2031407.9680839833,5801884.530264631 L 2031437.2795337448,5801916.5328616295 L 2031492.6841182634,5801983.071775596 L 2031533.0979850728,5802031.447897918 z" /></g></svg>